<?xml version="1.0" encoding="UTF-8"?>
<svg width="32px" height="32px" viewBox="0 0 32 32" version="1.1" xmlns="http://www.w3.org/2000/svg" xmlns:xlink="http://www.w3.org/1999/xlink">
    <title>ico_application</title>
    <defs>
        <filter color-interpolation-filters="auto" id="filter-1">
            <feColorMatrix in="SourceGraphic" type="matrix" values="0 0 0 0 0.000000 0 0 0 0 0.000000 0 0 0 0 0.000000 0 0 0 1.000000 0"></feColorMatrix>
        </filter>
    </defs>
    <g id="控件" stroke="none" stroke-width="1" fill="none" fill-rule="evenodd">
        <g id="ico_application" transform="translate(-32.000000, 0.000000)" filter="url(#filter-1)">
            <g transform="translate(32.000000, 0.000000)" fill="#000000" fill-rule="nonzero">
                <path d="M26.9524669,5.64121708 C26.9524669,4.5462033 26.1303171,3.65798596 25.1160919,3.65798596 L6.75400737,3.65798596 C5.74033724,3.65798596 4.91818751,4.5462033 4.91818751,5.64121708 L4.91818751,25.4717507 C4.91818751,26.5667644 5.74033724,27.4549818 6.75400737,27.4549818 L16.8290889,27.4549818 C16.8351953,27.7897668 16.8568455,28.1204041 16.8934842,28.4463011 L6.75400737,28.4463011 C5.23294705,28.4463011 4,27.1148639 4,25.4717507 L4,5.64121708 C4,3.99810388 5.23294705,2.66666667 6.75400737,2.66666667 L25.1160919,2.66666667 C26.6377073,2.66666667 27.8706543,3.99810388 27.8706543,5.64121708 L27.8706543,17.7100702 C27.5697731,17.6371878 27.2638956,17.580304 26.9524669,17.5406038 L26.9524669,5.64121708 Z M20.1215738,9.83284449 L9.97932136,9.83284449 C9.60904866,9.83284449 9.30816738,9.51228039 9.30816738,9.11646373 L9.30816738,9.10461292 C9.30816738,8.70879626 9.60904866,8.38823216 9.97932136,8.38823216 L20.1215738,8.38823216 C20.4924016,8.38823216 20.7927278,8.70879626 20.7927278,9.10461292 L20.7927278,9.11646373 C20.7927278,9.51228039 20.4924016,9.83284449 20.1215738,9.83284449 Z M20.1249046,16.0355524 L9.9765457,16.0355524 C9.60738327,16.0355524 9.30816738,15.7167659 9.30816738,15.3227269 C9.30816738,14.9292804 9.60738327,14.6099013 9.9765457,14.6099013 L20.1249046,14.6099013 C20.4935119,14.6099013 20.7927278,14.9292804 20.7927278,15.3227269 C20.7927278,15.7167659 20.4935119,16.0355524 20.1249046,16.0355524 Z M18.0542641,23.1270702 L21.8113941,23.1270702 L21.8113941,18.5917696 C21.8113941,18.1959529 22.1083894,17.8753888 22.4747762,17.8753888 C22.8406079,17.8753888 23.1376032,18.1959529 23.1376032,18.5917696 L23.1376032,23.1270702 L27.337173,23.1270702 C27.7035598,23.1270702 28,23.4476343 28,23.8428584 C28,24.2386751 27.7030046,24.5592392 27.337173,24.5592392 L23.1376032,24.5592392 L23.1376032,28.6169526 C23.1376032,29.0127692 22.8406079,29.3333333 22.4747762,29.3333333 C22.1083894,29.3333333 21.8113941,29.0127692 21.8113941,28.6169526 L21.8113941,24.5592392 L18.0542641,24.5592392 C17.6878773,24.5592392 17.390882,24.2386751 17.390882,23.8428584 C17.390882,23.4476343 17.6878773,23.1270702 18.0542641,23.1270702 Z" id="形状" stroke="#000000"></path>
            </g>
        </g>
    </g>
</svg>