<?xml version="1.0" encoding="UTF-8"?>
<svg width="32px" height="32px" viewBox="0 0 32 32" version="1.1" xmlns="http://www.w3.org/2000/svg" xmlns:xlink="http://www.w3.org/1999/xlink">
    <title>ico_examine</title>
    <g id="控件" stroke="none" stroke-width="1" fill="none" fill-rule="evenodd">
        <g id="con_examine" transform="translate(-32.000000, 0.000000)" fill="#000000" fill-rule="nonzero">
            <g id="ico_examine" transform="translate(32.000000, 0.000000)">
                <path d="M20.2591092,16.3059878 L7.59308386,16.3059878 C7.01977957,16.3059878 6.66646414,15.9273403 6.66646414,15.3060385 C6.66646414,14.6874031 7.01977957,14.3060891 7.59441715,14.3060891 L20.2591092,14.3060891 C20.8324135,14.3060891 21.185729,14.6874031 21.185729,15.3060385 C21.185729,15.9273403 20.8324135,16.3059878 20.2591092,16.3059878 Z M20.2591092,11.3329063 L7.59308386,11.3329063 C7.01977957,11.3329063 6.66646414,10.9529255 6.66646414,10.3329569 C6.66646414,9.71298832 7.01977957,9.33300756 7.59441715,9.33300756 L20.2591092,9.33300756 C20.8324135,9.33300756 21.185729,9.71298832 21.185729,10.3329569 C21.185729,10.9529255 20.8324135,11.3329063 20.2591092,11.3329063 Z M14.831384,20.7977604 L7.59441715,20.7977604 C7.02111286,20.7977604 6.66646414,20.4177796 6.66646414,19.797811 C6.66646414,19.1778424 7.01977957,18.7978617 7.59441715,18.7978617 L14.831384,18.7978617 C15.4046883,18.7978617 15.7580038,19.1778424 15.7580038,19.797811 C15.7580038,20.4177796 15.4046884,20.7977604 14.831384,20.7977604 Z M14.6660591,27.2814321 C15.0448325,27.262109 15.4034031,27.4531905 15.598589,27.7783754 C15.7937749,28.1035602 15.7937749,28.5098668 15.598589,28.8350516 C15.4034031,29.1602365 15.0448325,29.351318 14.6660591,29.3319949 L6.43847568,29.3319949 C4.35882742,29.3349428 2.67034538,27.6518324 2.66666667,25.5721853 L2.66666667,6.42648809 C2.67034538,4.34684099 4.35882742,2.66373058 6.43847568,2.66667255 L22.8923092,2.66667255 C23.8912412,2.66490887 24.8499623,3.06003677 25.5575641,3.76513819 C26.2651659,4.4702396 26.663685,5.42755607 26.6654515,6.42648809 L26.6654515,13.2648085 C26.6654515,13.8328966 26.204925,14.2934231 25.6368369,14.2934231 C25.0687487,14.2934231 24.6082223,13.8328966 24.6082223,13.2648085 L24.6082223,6.42648809 C24.6082223,5.48120263 23.8415944,4.71590802 22.8936425,4.71590802 L6.43980893,4.71590802 C5.49319019,4.71590802 4.72522907,5.48120259 4.72522907,6.42648809 L4.72522907,25.5695188 C4.72522907,26.5148042 5.49185693,27.2800988 6.43980893,27.2800988 L14.6660591,27.2800988 L14.6660591,27.2814321 Z M25.7321654,20.6924324 L26.4921269,23.9989316 L26.5067928,23.9989316 C28.0667139,23.9989316 29.3306499,25.1922045 29.3306499,26.6654633 C29.3306499,28.138722 28.0667139,29.3319949 26.5067928,29.3319949 L21.4883803,29.3319949 C19.9297926,29.3319949 18.6658565,28.138722 18.6658565,26.6654633 C18.6658565,25.1922046 19.9297926,23.9989316 21.4897136,23.9989316 L21.5030462,23.9989316 L22.2656743,20.6924324 C21.4172923,19.9667797 21.1107568,18.7894493 21.4975382,17.7422035 C21.8843195,16.6949576 22.8825311,15.9995121 23.9989198,15.9995121 C25.1153085,15.9995121 26.1135201,16.6949576 26.5003015,17.7422035 C26.8870829,18.7894493 26.5805473,19.9667797 25.7321654,20.6924324 L25.7321654,20.6924324 Z M24.1695779,21.3270669 C24.0559192,21.3342479 23.9419205,21.3342479 23.8282618,21.3270669 L23.212293,23.9989316 L24.7855467,23.9989316 L24.1695779,21.3270669 L24.1695779,21.3270669 Z M23.9989198,19.5538234 C24.3246035,19.5664408 24.6310956,19.3998841 24.7976892,19.119749 C24.9642828,18.8396139 24.9642828,18.4907895 24.7976892,18.2106544 C24.6310956,17.9305193 24.3246035,17.7639626 23.9989198,17.77658 C23.5077795,17.77658 23.1096315,18.174728 23.1096315,18.6658683 C23.1096315,19.1570087 23.5077795,19.5551566 23.9989198,19.5551566 L23.9989198,19.5538234 Z M21.4897136,25.776175 C20.9697399,25.776175 20.5484279,26.1748215 20.5484279,26.6654633 C20.5484279,27.1561051 20.9697399,27.5547516 21.4897136,27.5547516 L26.5081261,27.5547516 C27.0280998,27.5547516 27.4494118,27.1561051 27.4494118,26.6654633 C27.4494118,26.1748215 27.0280998,25.776175 26.5081261,25.776175 L21.4897136,25.776175 L21.4897136,25.776175 Z" id="形状"></path>
            </g>
        </g>
    </g>
</svg>