<?xml version="1.0" encoding="UTF-8"?>
<svg width="18px" height="19px" viewBox="0 0 18 19" version="1.1" xmlns="http://www.w3.org/2000/svg" xmlns:xlink="http://www.w3.org/1999/xlink">
    <title>ico_batch</title>
    <g id="控件" stroke="none" stroke-width="1" fill="none" fill-rule="evenodd">
        <g id="con_task-list" transform="translate(-718.000000, -31.000000)" fill-rule="nonzero">
            <g id="con_type-column" transform="translate(14.000000, 15.900621)">
                <g id="con_approval-status" transform="translate(600.000000, 7.950311)">
                    <g id="ico_batch" transform="translate(104.000000, 8.000000)">
                        <path d="M15.3467083,1.5 C15.9702066,1.5 16.4765738,1.98585126 16.4765738,2.58044902 L16.4779263,2.59325742 C16.478225,2.60064368 16.4783758,2.60806829 16.4783758,2.61552853 L16.4783758,3.53987371 C16.4765738,3.84506548 16.2242912,4.09062208 15.912542,4.09062208 C15.6007929,4.09062208 15.3467083,3.84506548 15.3467083,3.53987371 L15.3467083,2.59974275 L6.02126382,2.59974275 L6.021,4.395 L12.746396,4.39581384 C13.3698943,4.39581384 13.8762614,4.88868101 13.8762614,5.49555659 L13.876,11.555 L15.3701346,11.5555426 L15.3689639,10.117269 C15.3685446,10.1085564 15.3683325,10.0997895 15.3683325,10.0909729 L15.3683325,6.89522919 C15.3683325,6.59179139 15.6206151,6.34448082 15.9341663,6.34448082 C16.2477174,6.34448082 16.5,6.59003742 16.5,6.89522919 L16.5,11.5537886 C16.5,12.1606642 15.9936329,12.6552853 15.3701346,12.6552853 L13.876,12.655 L13.8762614,15.4002572 C13.8762614,16.0053789 13.3698943,16.5 12.746396,16.5 L2.62986545,16.5 C2.00636713,16.5 1.5,16.0071328 1.5,15.4002572 L1.5,5.49555659 C1.5,4.88868101 2.00636713,4.39581384 2.62986545,4.39581384 L4.891,4.395 L4.89139837,2.59974275 C4.89139837,1.99286717 5.3977655,1.5 6.02126382,1.5 L15.3467083,1.5 Z M12.746396,5.49555659 L2.62986545,5.49555659 L2.62986545,15.4002572 L12.746396,15.4002572 L12.746396,5.49555659 Z M10.9335656,7.35126286 C11.1858481,7.53192236 11.2381067,7.87570159 11.0543008,8.11950421 L7.49351273,12.8306829 C7.3817876,12.9762629 7.21059587,13.0551918 7.03760211,13.0551918 C6.9628075,13.0551918 6.88801289,13.040888 6.81744102,13.0118239 C6.75503912,12.9904134 6.69542657,12.9594314 6.6411581,12.9166277 L4.45350793,11.2170253 C4.21023546,11.0275959 4.17059106,10.6820627 4.36520903,10.443522 C4.55982701,10.2067353 4.9148246,10.1663938 5.15989909,10.3575772 L6.922,11.727 L10.1442816,7.46877923 C10.3298895,7.22497661 10.6830851,7.17235734 10.9335656,7.35126286 Z M15.6296252,4.74497429 C15.8046947,4.64659256 16.0203894,4.64659256 16.1954589,4.74497429 C16.3705285,4.84335602 16.4783758,5.02517294 16.4783758,5.22193639 C16.4783758,5.41869984 16.3705285,5.60051676 16.1954589,5.69889849 C16.0203894,5.79728022 15.8046947,5.79728022 15.6296252,5.69889849 C15.4545556,5.60051676 15.3467083,5.41869984 15.3467083,5.22193639 C15.3467083,5.02517294 15.4545556,4.84335602 15.6296252,4.74497429 Z" id="形状结合" fill="#999999"></path>
                    </g>
                </g>
            </g>
        </g>
    </g>
</svg>