<?xml version="1.0" encoding="UTF-8"?>
<svg width="32px" height="32px" viewBox="0 0 32 32" version="1.1" xmlns="http://www.w3.org/2000/svg" xmlns:xlink="http://www.w3.org/1999/xlink">
    <title>ico_news</title>
    <g id="控件" stroke="none" stroke-width="1" fill="none" fill-rule="evenodd">
        <g id="con_bottom" transform="translate(-144.000000, -34.000000)" fill="#000000" fill-rule="nonzero">
            <g id="con_application" transform="translate(144.000000, 33.000000)">
                <g id="ico_news" transform="translate(0.000000, 1.000000)">
                    <path d="M16,5.80392157 C18.3339051,5.80392157 20.5722195,6.71288254 22.2225397,8.33084346 C23.8728598,9.94880437 24.8,12.1432303 24.8,14.4313725 L24.8,15.0839216 C24.8,15.5170861 24.4418278,15.8682353 24,15.8682353 C23.5581722,15.8682353 23.2,15.5170861 23.2,15.0839216 L23.2,14.4313725 C23.2,10.532892 19.9764502,7.37254902 16,7.37254902 C12.0235498,7.37254902 8.8,10.532892 8.8,14.4313725 L8.8,21.4901961 L23.2,21.4901961 L23.2,18.24 C23.2,17.8068355 23.5581722,17.4556863 24,17.4556863 C24.4418278,17.4556863 24.8,17.8068355 24.8,18.24 L24.8,23.0588235 L7.2,23.0588235 L7.2,14.4313725 C7.2,9.66656294 11.1398942,5.80392157 16,5.80392157 Z M16,5.80392157 C16.4418278,5.80392157 16.8,5.45277235 16.8,5.01960784 C16.8,4.58644333 16.4418278,4.23529412 16,4.23529412 C15.5581722,4.23529412 15.2,4.58644333 15.2,5.01960784 C15.2,5.45277235 15.5581722,5.80392157 16,5.80392157 L16,5.80392157 Z M16,7.37254902 C14.6745166,7.37254902 13.6,6.31910137 13.6,5.01960784 C13.6,3.72011431 14.6745166,2.66666667 16,2.66666667 C17.3254834,2.66666667 18.4,3.72011431 18.4,5.01960784 C18.4,6.31910137 17.3254834,7.37254902 16,7.37254902 Z M6.4,23.0588235 C5.9581722,23.0588235 5.6,23.4099727 5.6,23.8431373 C5.6,24.2763018 5.9581722,24.627451 6.4,24.627451 L25.6,24.627451 C26.0418278,24.627451 26.4,24.2763018 26.4,23.8431373 C26.4,23.4099727 26.0418278,23.0588235 25.6,23.0588235 L6.4,23.0588235 Z M6.4,21.4901961 L25.6,21.4901961 C26.9254834,21.4901961 28,22.5436437 28,23.8431373 C28,25.1426308 26.9254834,26.1960784 25.6,26.1960784 L6.4,26.1960784 C5.0745166,26.1960784 4,25.1426308 4,23.8431373 C4,22.5436437 5.0745166,21.4901961 6.4,21.4901961 Z M16,27.7647062 C17.017541,27.7652289 17.9248198,27.1366147 18.264,26.1960784 L13.736,26.1960784 C14.0751802,27.1366147 14.982459,27.7652289 16,27.7647062 L16,27.7647062 Z M20,24.627451 L20,25.4117647 C20,27.5775873 18.209139,29.3333333 16,29.3333333 C13.790861,29.3333333 12,27.5775873 12,25.4117647 L12,24.627451 L20,24.627451 Z" id="形状"></path>
                </g>
            </g>
        </g>
    </g>
</svg>