<?xml version="1.0" encoding="UTF-8"?>
<svg width="32px" height="32px" viewBox="0 0 32 32" version="1.1" xmlns="http://www.w3.org/2000/svg" xmlns:xlink="http://www.w3.org/1999/xlink">
    <title>ico_cancal</title>
    <g id="控件" stroke="none" stroke-width="1" fill="none" fill-rule="evenodd">
        <g id="con_bottom" transform="translate(-519.000000, -34.000000)" fill="#000000" fill-rule="nonzero">
            <g id="con_examine" transform="translate(519.000000, 33.000000)">
                <g id="ico_cancal" transform="translate(0.000000, 1.000000)">
                    <path d="M18.8678668,7.39157328 L6.46551001,7.39157328 L8.87914648,4.74751501 C9.31381664,4.27134834 9.31381664,3.49995834 8.87914648,3.02379167 C8.44447632,2.547625 7.74031066,2.547625 7.3056405,3.02379167 L2.99266929,7.74888875 C2.55799913,8.22505541 2.55799913,8.99644542 2.99266929,9.47261208 L7.3056405,14.1973282 C7.52297558,14.4354116 7.80777147,14.5546437 8.09221962,14.5546437 C8.37666778,14.5546437 8.6618114,14.4357925 8.87879875,14.1973282 C9.31346891,13.7211616 9.31346891,12.9497716 8.87879875,12.4736049 L6.46551001,9.82954662 L18.8678668,9.82954662 C23.4113871,9.82954662 27.1081698,13.6571648 27.1081698,18.3624533 C27.1081698,23.06698 23.4113871,26.89536 18.8678668,26.89536 L7.48194271,26.89536 C6.86749297,26.89536 6.3691871,27.4404756 6.3691871,28.1143467 C6.3691871,28.7882177 6.86749297,29.3333333 7.48194271,29.3333333 L18.8675191,29.3333333 C24.6388956,29.3333333 29.3333333,24.4120556 29.3333333,18.3624533 C29.3336811,12.313232 24.6392433,7.39157328 18.8678668,7.39157328 Z" id="路径"></path>
                </g>
            </g>
        </g>
    </g>
</svg>