<?xml version="1.0" encoding="UTF-8"?>
<svg width="32px" height="32px" viewBox="0 0 32 32" version="1.1" xmlns="http://www.w3.org/2000/svg" xmlns:xlink="http://www.w3.org/1999/xlink">
    <title>ico_add</title>
    <defs>
        <filter color-interpolation-filters="auto" id="filter-1">
            <feColorMatrix in="SourceGraphic" type="matrix" values="0 0 0 0 0.000000 0 0 0 0 0.000000 0 0 0 0 0.000000 0 0 0 1.000000 0"></feColorMatrix>
        </filter>
    </defs>
    <g id="控件" stroke="none" stroke-width="1" fill="none" fill-rule="evenodd">
        <g id="添加备注" transform="translate(-283.000000, -25.000000)">
            <g id="ico_add" transform="translate(283.000000, 24.000000)" filter="url(#filter-1)">
                <g transform="translate(0.000000, 1.000000)" fill-rule="nonzero">
                    <path d="M13.7350519,16.1283556 L12.6667556,19.333363 L15.871763,18.2650667 C15.9884444,18.2267259 16.0967704,18.1600296 16.183437,18.0717333 L28.4584296,5.79674074 C29.0817778,5.17342222 29.0817778,4.16340741 28.4584296,3.54008889 C27.8350815,2.91677037 26.8250963,2.91674074 26.2017481,3.54008889 L13.9284148,15.8167407 C13.8400889,15.9034074 13.7734519,16.0100741 13.7350815,16.1284148 L13.7350519,16.1283556 Z M28.5350519,12.6666963 L26.7967111,12.6666963 C26.3567111,12.6666963 26.0000593,13.0233778 26.0000593,13.465037 L26.0000593,25.2033778 C26.0000593,25.6433778 25.6434074,26.0000296 25.2017185,26.0000296 L6.79837037,26.0000296 C6.35671111,26.0000296 6.00002963,25.6433778 6.00002963,25.2016889 L6.00002963,6.79834074 C6.00002963,6.35668148 6.35668148,6 6.79837037,6 L18.5367111,6 C18.9767111,6 19.333363,5.64334815 19.333363,5.20165926 L19.333363,3.46500741 C19.333363,3.02334815 18.9766815,2.66666667 18.5350222,2.66666667 L3.46500741,2.66666667 C3.02334815,2.66666667 2.66666667,3.02331852 2.66666667,3.46500741 L2.66666667,28.5366815 C2.66666667,28.9766815 3.02331852,29.3333333 3.46500741,29.3333333 L28.5366815,29.3333333 C28.9766815,29.3333333 29.3333333,28.9766815 29.3333333,28.5349926 L29.3333333,13.4649778 C29.3333333,13.0233185 28.9766815,12.666637 28.5349926,12.666637 L28.5350519,12.6666963 Z" id="形状" fill="#333333"></path>
                </g>
            </g>
        </g>
    </g>
</svg>